<?xml version="1.0" encoding="UTF-8"?>
<svg version="1.1" xmlns="http://www.w3.org/2000/svg" width="490" height="490">
<path d="M0 0 C18.81 0 37.62 0 57 0 C57.33 40.59 57.66 81.18 58 123 C80.11 100.89 102.22 78.78 125 56 C119.06 55.67 113.12 55.34 107 55 C105.68 54.01 104.36 53.02 103 52 C103.3125 48.625 103.3125 48.625 104 45 C107.6921332 42.53857787 110.5351817 42.693938 114.80859375 42.69921875 C115.57172379 42.69493362 116.33485382 42.6906485 117.12110901 42.68623352 C118.73413095 42.68049418 120.34717877 42.67998706 121.96020508 42.68432617 C124.4250924 42.6874841 126.88877687 42.66403079 129.35351562 42.63867188 C130.92187349 42.63639859 132.49023457 42.63569552 134.05859375 42.63671875 C134.79411972 42.627509 135.52964569 42.61829926 136.28746033 42.60881042 C139.25136143 42.63553754 141.7038492 42.88079409 144.46313477 43.99145508 C146.9115922 47.19136918 146.57006595 50.63462691 146.53125 54.5 C146.5350769 55.33208984 146.53890381 56.16417969 146.54284668 57.02148438 C146.5455675 58.77996023 146.5381943 60.53847644 146.52148438 62.296875 C146.50007551 64.99050005 146.52127848 67.68145803 146.546875 70.375 C146.54423175 72.08333923 146.53910683 73.79167679 146.53125 75.5 C146.53934692 76.30630859 146.54744385 77.11261719 146.55578613 77.94335938 C146.46257379 83.49440733 146.46257379 83.49440733 144.13085938 86.04296875 C141.32480549 87.3032496 139.87699597 86.98423546 137 86 C131.76656051 80.76656051 134.36959835 71.39196691 134 64 C120.14 77.86 106.28 91.72 92 106 C112.295 106.495 112.295 106.495 133 107 C132.95697754 109.92568848 132.91395508 112.85137695 132.86962891 115.86572266 C132.73717574 125.57662461 132.68273504 135.28686568 132.66578102 144.99862099 C132.65314927 150.88235056 132.61497419 156.76351411 132.51660156 162.64648438 C132.42247073 168.33379151 132.39781852 174.01769742 132.41953659 179.70569992 C132.4159215 181.86577683 132.38806986 184.02596521 132.33458328 186.18538284 C131.95998166 200.46147409 131.95998166 200.46147409 138.93137741 212.42524338 C141.81705424 215.10588751 144.93319187 217.52862961 148 220 C148.33 213.07 148.66 206.14 149 199 C150.32 199 151.64 199 153 199 C153 197.35 153 195.7 153 194 C171.81 194 190.62 194 210 194 C210 224.69 210 255.38 210 287 C208.68 287 207.36 287 206 287 C206 288.65 206 290.3 206 292 C187.19 292 168.38 292 149 292 C148.67 277.48 148.34 262.96 148 248 C147.01 248 146.02 248 145 248 C142.99680619 246.21422954 141.15665434 244.43695695 139.3125 242.5 C138.80138672 241.97535156 138.29027344 241.45070313 137.76367188 240.91015625 C136.50227292 239.61339096 135.25022788 238.30753883 134 237 C133.89173711 239.4178712 133.81260211 241.83087556 133.75 244.25 C133.69972656 245.27287109 133.69972656 245.27287109 133.6484375 246.31640625 C133.5784295 249.92181813 133.70848281 251.64068812 136.015625 254.484375 C136.99789062 255.23460937 136.99789062 255.23460937 138 256 C136.84826645 258.46800047 135.95216435 260.04783565 134 262 C133.62826984 264.6182767 133.62826984 264.6182767 133.5859375 267.6640625 C133.52792969 269.34628906 133.52792969 269.34628906 133.46875 271.0625 C133.4378125 272.238125 133.406875 273.41375 133.375 274.625 C133.31699219 276.40003906 133.31699219 276.40003906 133.2578125 278.2109375 C133.16331155 281.14046691 133.07775442 284.06998597 133 287 C131.68 287 130.36 287 129 287 C129 288.65 129 290.3 129 292 C110.19 292 91.38 292 72 292 C72 285.4 72 278.8 72 272 C69.6796875 271.319375 69.6796875 271.319375 67.3125 270.625 C63.74934921 269.5798091 60.47005466 268.38802186 57 267 C57 273.6 57 280.2 57 287 C55.68 287 54.36 287 53 287 C53 288.65 53 290.3 53 292 C34.19 292 15.38 292 -4 292 C-3.90976563 287.10929687 -3.81953125 282.21859375 -3.7265625 277.1796875 C-3.70058459 274.05301708 -3.6788081 270.92741125 -3.671875 267.80078125 C-3.66051315 262.85344062 -3.63490016 257.90946933 -3.51660156 252.96337891 C-3.42202272 248.96797973 -3.3978989 244.97742045 -3.41953659 240.98102188 C-3.41593858 239.46839891 -3.38832204 237.95560776 -3.33458328 236.44393539 C-3.31042721 235.72282703 -3.28627113 235.00171867 -3.26138306 234.25875854 C-3.23304193 233.63269148 -3.20470081 233.00662441 -3.17550087 232.36158562 C-4.00651314 218.75871468 -7.47112929 219.52887071 -19 208 C-19.33 234.07 -19.66 260.14 -20 287 C-21.32 287 -22.64 287 -24 287 C-24 288.65 -24 290.3 -24 292 C-42.81 292 -61.62 292 -81 292 C-81.01981934 286.54952148 -81.03963867 281.09904297 -81.06005859 275.48339844 C-81.12699325 257.46628623 -81.20453402 239.44923118 -81.28752708 221.43218613 C-81.3375825 210.5094924 -81.3840261 199.58680591 -81.421875 188.6640625 C-81.4548853 179.14035465 -81.49476611 169.61670418 -81.54279006 160.09305978 C-81.56796538 155.05351543 -81.58977286 150.0140087 -81.60334396 144.97441864 C-81.61624605 140.22366358 -81.63838701 135.47303812 -81.66738319 130.72235489 C-81.67639565 128.98584781 -81.68213426 127.2493199 -81.68421364 125.51279068 C-81.69627593 116.96367276 -81.88221733 108.76886786 -83.54433632 100.34413528 C-85.37201056 90.94177153 -84.53664614 80.38761598 -79.8515625 71.92578125 C-75.42783792 65.62261299 -69.51479842 60.33816787 -64 55 C-60.06532451 56.59247554 -57.42422224 59.30662369 -54.49707031 62.27587891 C-53.96003983 62.81261734 -53.42300934 63.34935577 -52.8697052 63.90235901 C-51.10106141 65.67239283 -49.33960176 67.44939857 -47.578125 69.2265625 C-46.35116534 70.45725344 -45.12376251 71.6875027 -43.89593506 72.91732788 C-40.66932512 76.15156516 -37.44876709 79.39176408 -34.22943115 82.63323975 C-30.94174328 85.94140534 -27.64836932 89.24389946 -24.35546875 92.546875 C-17.89806702 99.02571079 -11.44704432 105.51085869 -5 112 C-4.1019711 105.35512071 -3.46023015 99.60344576 -6.94091797 93.71829224 C-9.67376994 90.40879646 -12.79629463 87.51210988 -15.9375 84.59765625 C-17.06177447 83.50141808 -18.18273965 82.40177675 -19.30053711 81.29893494 C-22.22771582 78.42857364 -25.19704217 75.6061505 -28.17810059 72.79193115 C-31.22149702 69.90299856 -34.22198906 66.97020973 -37.2265625 64.04101562 C-43.11031844 58.31731926 -49.03941013 52.64363407 -55 47 C-54.05361962 45.87131192 -53.10371814 44.74557558 -52.15234375 43.62109375 C-51.62374756 42.99388428 -51.09515137 42.3666748 -50.55053711 41.72045898 C-47.57065501 38.41401446 -45.11131039 37.19234218 -40.75 36.4375 C-30.42790702 37.98581395 -22.88100901 47.76199077 -15.9375 54.875 C-12.328125 58.54625 -8.71875 62.2175 -5 66 C-4.67 45.87 -4.34 25.74 -4 5 C-2.68 5 -1.36 5 0 5 C0 3.35 0 1.7 0 0 Z M-9.5625 121.1875 C-10.80193359 122.35345703 -10.80193359 122.35345703 -12.06640625 123.54296875 C-14.15106978 125.82666395 -14.15106978 125.82666395 -14.5546875 128.5 C-13.7854896 131.96680745 -12.12826303 133.39884149 -9.5625 135.8125 C-8.32693359 136.99779297 -8.32693359 136.99779297 -7.06640625 138.20703125 C-5.3300865 140.10922755 -5.3300865 140.10922755 -4 140 C-4 132.41 -4 124.82 -4 117 C-6.14776164 117 -8.14678734 119.82939068 -9.5625 121.1875 Z M62.05366516 132.84484863 C53.16394997 142.61418838 55.21762467 156.9834825 55.63067627 169.35241699 C55.70679341 172.22917076 55.70394598 175.10360639 55.69970989 177.98119354 C55.70161754 180.76831942 55.74005308 183.55396107 55.79071999 186.34059143 C55.82352657 188.30235914 55.83589581 190.26443469 55.8478241 192.22644043 C55.97305565 198.56535694 55.97305565 198.56535694 58.51968384 204.19458008 C60.30938421 205.83253373 61.77354545 207.03795012 64 208 C67.73501967 207.43622345 69.34353596 206.65646404 72 204 C72.1877701 201.50037754 72.25194071 199.11255803 72.22705078 196.61279297 C72.22734283 195.85172241 72.22763489 195.09065186 72.22793579 194.30651855 C72.22653981 191.78495984 72.21096618 189.26369475 72.1953125 186.7421875 C72.19158332 184.99626833 72.1887359 183.25034706 72.18673706 181.50442505 C72.17909311 176.9045028 72.15943813 172.30470643 72.1373291 167.70483398 C72.11688704 163.0128754 72.10773886 158.32089651 72.09765625 153.62890625 C72.07619292 144.41921546 72.04204783 135.20961819 72 126 C68.5993202 126 64.45195776 130.63231737 62.05366516 132.84484863 Z " fill="#050300" transform="translate(209,71)"/>
<path d="M0 0 C3.93467549 1.59247554 6.57577776 4.30662369 9.50292969 7.27587891 C10.03996017 7.81261734 10.57699066 8.34935577 11.1302948 8.90235901 C12.89893859 10.67239283 14.66039824 12.44939857 16.421875 14.2265625 C17.64883466 15.45725344 18.87623749 16.6875027 20.10406494 17.91732788 C23.33067488 21.15156516 26.55123291 24.39176408 29.77056885 27.63323975 C33.05825672 30.94140534 36.35163068 34.24389946 39.64453125 37.546875 C46.10193298 44.02571079 52.55295568 50.51085869 59 57 C57.09318409 61.01715077 54.57884096 63.66133176 51.4609375 66.8046875 C49.46500142 69.80392835 49.41692712 71.46088323 50 75 C51.98022041 77.70604097 51.98022041 77.70604097 54.6875 80.0625 C55.55761719 80.87847656 56.42773438 81.69445312 57.32421875 82.53515625 C58.64873047 83.75525391 58.64873047 83.75525391 60 85 C63.72236988 88.69123613 67.39729548 92.42871761 71.07202148 96.16723633 C77.02166656 102.21472328 82.98641642 108.24707539 88.96002102 114.27089405 C92.56804652 117.91033507 96.17020906 121.55522097 99.76000977 125.21264648 C103.24100984 128.75877519 106.73641132 132.2900984 110.24232674 135.81159019 C111.57406051 137.15440579 112.90050396 138.50248959 114.22149467 139.85587502 C116.06682334 141.74468817 117.93001451 143.61395203 119.79858398 145.47973633 C120.33955215 146.04227615 120.88052032 146.60481598 121.43788147 147.18440247 C124.04522666 149.7499317 125.57726028 150.94325222 129.25038147 151.43632507 C132.56103137 150.91097236 133.76558481 149.96531061 136.125 147.625 C138.65740761 145.15361426 140.80959164 143.51438713 144 142 C147.57794452 145.55299372 151.15241386 149.10943651 154.72387695 152.66894531 C155.93617248 153.87625065 157.1493687 155.08265234 158.36352539 156.28808594 C164.14478733 162.02888619 169.88132098 167.73093897 175.16430664 173.93945312 C179.52665111 178.83613983 184.28255785 183.38311306 188.9375 188 C190.01390654 189.07137887 191.09008014 190.14299182 192.16601562 191.21484375 C194.77466745 193.81259638 197.38644471 196.40717962 200 199 C195.5677721 208.42192934 187.2749029 214.66937548 177.7265625 218.1953125 C160.22585062 223.36027904 137.30075415 216.98603749 121 210 C121 216.6 121 223.2 121 230 C119.68 230 118.36 230 117 230 C117 231.65 117 233.3 117 235 C98.19 235 79.38 235 60 235 C60.09023437 230.10929688 60.18046875 225.21859375 60.2734375 220.1796875 C60.29941541 217.05301708 60.3211919 213.92741125 60.328125 210.80078125 C60.33948685 205.85344062 60.36509984 200.90946933 60.48339844 195.96337891 C60.57797728 191.96797973 60.6021011 187.97742045 60.58046341 183.98102188 C60.58406142 182.46839891 60.61167796 180.95560776 60.66541672 179.44393539 C60.68957279 178.72282703 60.71372887 178.00171867 60.73861694 177.25875854 C60.76695807 176.63269148 60.79529919 176.00662441 60.82449913 175.36158562 C59.99348686 161.75871468 56.52887071 162.52887071 45 151 C44.67 177.07 44.34 203.14 44 230 C42.68 230 41.36 230 40 230 C40 231.65 40 233.3 40 235 C21.19 235 2.38 235 -17 235 C-17.01981934 229.54952148 -17.03963867 224.09904297 -17.06005859 218.48339844 C-17.12699325 200.46628623 -17.20453402 182.44923118 -17.28752708 164.43218613 C-17.3375825 153.5094924 -17.3840261 142.58680591 -17.421875 131.6640625 C-17.4548853 122.14035465 -17.49476611 112.61670418 -17.54279006 103.09305978 C-17.56796538 98.05351543 -17.58977286 93.0140087 -17.60334396 87.97441864 C-17.61624605 83.22366358 -17.63838701 78.47303812 -17.66738319 73.72235489 C-17.67639565 71.98584781 -17.68213426 70.2493199 -17.68421364 68.51279068 C-17.69627593 59.96367276 -17.88221733 51.76886786 -19.54433632 43.34413528 C-21.19909886 34.83130572 -20.72013843 24.92275215 -17 17 C-14.78125 14.58203125 -14.78125 14.58203125 -12 12 C-10.9580098 10.96648667 -9.92040534 9.92853707 -8.88671875 8.88671875 C-5.92447917 5.92447917 -2.96223958 2.96223958 0 0 Z " fill="#FD7E0D" transform="translate(145,128)"/>
<path d="M0 0 C10.56 0 21.12 0 32 0 C32 104.28 32 208.56 32 316 C136.28 316 240.56 316 348 316 C348 326.56 348 337.12 348 348 C233.16 348 118.32 348 0 348 C0 233.16 0 118.32 0 0 Z " fill="#000000" transform="translate(71,71)"/>
<path d="M0 0 C18.81 0 37.62 0 57 0 C57.33 40.59 57.66 81.18 58 123 C80.11 100.89 102.22 78.78 125 56 C119.72 55.67 114.44 55.34 109 55 C109 54.67 109 54.34 109 54 C115.6 54 122.2 54 129 54 C122.25118864 61.87361325 122.25118864 61.87361325 119.27932739 64.80728149 C118.60636124 65.47439651 117.93339508 66.14151154 117.24003601 66.82884216 C116.16433098 67.88737144 116.16433098 67.88737144 115.06689453 68.96728516 C114.2954863 69.73080795 113.52407806 70.49433075 112.72929382 71.2809906 C111.06557876 72.92759439 109.40082787 74.57315212 107.73514175 76.21776199 C104.19636032 79.71434893 100.66698671 83.22036712 97.13702202 86.72585106 C90.57358283 93.24358922 84.00662173 99.75768101 77.42285156 106.25488281 C72.83405008 110.78442962 68.25743651 115.32597629 63.68874741 119.8758049 C61.94606267 121.6067246 60.19884552 123.33309323 58.44708633 125.05482864 C56.00538167 127.45570031 53.57949624 129.87153572 51.15673828 132.29150391 C50.42745621 133.00123856 49.69817413 133.71097321 48.9467926 134.44221497 C48.29074539 135.10369034 47.63469818 135.76516571 46.95877075 136.44668579 C46.3839905 137.01555826 45.80921024 137.58443073 45.21701241 138.17054176 C43.63543192 140.54803227 43.77297822 142.20350372 44 145 C47.23537655 146.01683263 48.53126457 146.23436771 51.625 144.6875 C52.40875 144.130625 53.1925 143.57375 54 143 C54.99 142.34 55.98 141.68 57 141 C56.99920441 141.75310959 56.99840881 142.50621918 56.99758911 143.28215027 C56.99537887 150.38885743 57.02183388 157.49474977 57.0802784 164.60117626 C57.10931898 168.25455399 57.12737512 171.90729077 57.12011719 175.56079102 C57.11351675 179.08854035 57.13604566 182.61502398 57.17855453 186.14251137 C57.19507539 188.13930995 57.18163286 190.13628371 57.16775513 192.13310242 C57.07126643 198.34557816 57.07126643 198.34557816 59.2880249 203.95449829 C61.72099342 206.09213076 63.66340543 206.96341363 66.875 207.3125 C67.57625 207.209375 68.2775 207.10625 69 207 C68.67 207.66 68.34 208.32 68 209 C63.86327223 209.54790072 62.37157838 209.28315228 58.99632263 206.71112061 C57.91499766 205.6440991 56.85005452 204.56031979 55.79858398 203.46386719 C55.21077148 202.87532455 54.62295898 202.28678192 54.01733398 201.68040466 C52.07915867 199.73295813 50.16299845 197.76524308 48.24609375 195.796875 C46.90040207 194.43744525 45.55329899 193.07941129 44.20484924 191.72271729 C40.65736971 188.14666607 37.12782663 184.5534266 33.60217285 180.95587158 C29.32365586 176.59592451 25.02623556 172.25462817 20.72968388 167.91246414 C17.38485251 164.5319427 14.04358351 161.14816374 10.71299744 157.75360107 C9.78980461 156.81548332 9.78980461 156.81548332 8.84796143 155.8584137 C7.7053676 154.69731462 6.56474563 153.53427006 5.42658997 152.36882019 C2.43793654 149.33753225 -0.63773277 146.62415713 -4 144 C-5.22251434 142.69869576 -6.41265586 141.36594014 -7.5625 140 C-9.45604324 137.75916936 -11.21967898 135.80848499 -13.4375 133.875 C-15 132 -15 132 -15.6875 129.25 C-14.78863644 125.00082681 -12.71220917 122.98905384 -9.7265625 119.9296875 C-7.6959989 117.83052681 -7.6959989 117.83052681 -6 114 C-24.48 95.52 -42.96 77.04 -62 58 C-66.06026821 60.03013411 -68.65457376 62.42395554 -71.75 65.625 C-72.50990234 66.3984375 -72.50990234 66.3984375 -73.28515625 67.1875 C-74.52803902 68.45383339 -75.76465276 69.7263144 -77 71 C-77 68 -77 68 -75.80664062 66.46606445 C-75.26201172 65.937146 -74.71738281 65.40822754 -74.15625 64.86328125 C-73.56972656 64.28642578 -72.98320312 63.70957031 -72.37890625 63.11523438 C-71.75886719 62.52033203 -71.13882813 61.92542969 -70.5 61.3125 C-69.87996094 60.70599609 -69.25992188 60.09949219 -68.62109375 59.47460938 C-67.08735293 57.97626257 -65.54451802 56.48723507 -64 55 C-60.06532451 56.59247554 -57.42422224 59.30662369 -54.49707031 62.27587891 C-53.96003983 62.81261734 -53.42300934 63.34935577 -52.8697052 63.90235901 C-51.10106141 65.67239283 -49.33960176 67.44939857 -47.578125 69.2265625 C-46.35116534 70.45725344 -45.12376251 71.6875027 -43.89593506 72.91732788 C-40.66932512 76.15156516 -37.44876709 79.39176408 -34.22943115 82.63323975 C-30.94174328 85.94140534 -27.64836932 89.24389946 -24.35546875 92.546875 C-17.89806702 99.02571079 -11.44704432 105.51085869 -5 112 C-4.1019711 105.35512071 -3.46023015 99.60344576 -6.94091797 93.71829224 C-9.67376994 90.40879646 -12.79629463 87.51210988 -15.9375 84.59765625 C-17.06177447 83.50141808 -18.18273965 82.40177675 -19.30053711 81.29893494 C-22.22771582 78.42857364 -25.19704217 75.6061505 -28.17810059 72.79193115 C-31.22149702 69.90299856 -34.22198906 66.97020973 -37.2265625 64.04101562 C-43.11031844 58.31731926 -49.03941013 52.64363407 -55 47 C-54.05361962 45.87131192 -53.10371814 44.74557558 -52.15234375 43.62109375 C-51.62374756 42.99388428 -51.09515137 42.3666748 -50.55053711 41.72045898 C-47.57065501 38.41401446 -45.11131039 37.19234218 -40.75 36.4375 C-30.42790702 37.98581395 -22.88100901 47.76199077 -15.9375 54.875 C-12.328125 58.54625 -8.71875 62.2175 -5 66 C-4.67 45.87 -4.34 25.74 -4 5 C-2.68 5 -1.36 5 0 5 C0 3.35 0 1.7 0 0 Z M-9.5625 121.1875 C-10.80193359 122.35345703 -10.80193359 122.35345703 -12.06640625 123.54296875 C-14.15106978 125.82666395 -14.15106978 125.82666395 -14.5546875 128.5 C-13.7854896 131.96680745 -12.12826303 133.39884149 -9.5625 135.8125 C-8.32693359 136.99779297 -8.32693359 136.99779297 -7.06640625 138.20703125 C-5.3300865 140.10922755 -5.3300865 140.10922755 -4 140 C-4 132.41 -4 124.82 -4 117 C-6.14776164 117 -8.14678734 119.82939068 -9.5625 121.1875 Z " fill="#000000" transform="translate(209,71)"/>
<path d="M0 0 C1 3 1 3 0.08984375 5.58203125 C-5.51889124 23.17214996 1.072609 45.27054715 9.0234375 61.15429688 C21.27660152 84.31277687 37.68068359 106.43680817 55.625 125.4765625 C57.6291648 127.6059876 59.54572062 129.77170217 61.4375 132 C68.63249899 140.28462624 76.61533373 147.93444036 85 155 C86.39412109 156.21042969 86.39412109 156.21042969 87.81640625 157.4453125 C102.84108068 170.43605846 119.37858174 184.52163563 137.92578125 192.0625 C140 193 140 193 142 195 C140.35 194.67 138.7 194.34 137 194 C137 200.6 137 207.2 137 214 C135.68 214 134.36 214 133 214 C133 215.65 133 217.3 133 219 C114.19 219 95.38 219 76 219 C76.09023437 214.10929688 76.18046875 209.21859375 76.2734375 204.1796875 C76.29941541 201.05301708 76.3211919 197.92741125 76.328125 194.80078125 C76.33948685 189.85344062 76.36509984 184.90946933 76.48339844 179.96337891 C76.57797728 175.96797973 76.6021011 171.97742045 76.58046341 167.98102188 C76.58406142 166.46839891 76.61167796 164.95560776 76.66541672 163.44393539 C76.68957279 162.72282703 76.71372887 162.00171867 76.73861694 161.25875854 C76.76695807 160.63269148 76.79529919 160.00662441 76.82449913 159.36158562 C75.99348686 145.75871468 72.52887071 146.52887071 61 135 C60.67 161.07 60.34 187.14 60 214 C58.68 214 57.36 214 56 214 C56 215.65 56 217.3 56 219 C37.19 219 18.38 219 -1 219 C-1.01981934 213.54952148 -1.03963867 208.09904297 -1.06005859 202.48339844 C-1.12699325 184.46628623 -1.20453402 166.44923118 -1.28752708 148.43218613 C-1.3375825 137.5094924 -1.3840261 126.58680591 -1.421875 115.6640625 C-1.4548853 106.14035465 -1.49476611 96.61670418 -1.54279006 87.09305978 C-1.56796538 82.05351543 -1.58977286 77.0140087 -1.60334396 71.97441864 C-1.61624605 67.22366358 -1.63838701 62.47303812 -1.66738319 57.72235489 C-1.67639565 55.98584781 -1.68213426 54.2493199 -1.68421364 52.51279068 C-1.69627593 43.96367276 -1.88221733 35.76886786 -3.54433632 27.34413528 C-5.28374335 18.39585703 -4.12891874 9.49509543 -1 1 C-0.67 0.67 -0.34 0.34 0 0 Z " fill="#000000" transform="translate(129,144)"/>
<path d="M0 0 C18.81 0 37.62 0 57 0 C57 30.69 57 61.38 57 93 C38.52 92.67 20.04 92.34 1 92 C1 77.48 1 62.96 1 48 C0.34 48 -0.32 48 -1 48 C-0.83757812 47.43410156 -0.67515625 46.86820312 -0.5078125 46.28515625 C0.01594279 43.92825745 0.13315862 41.84837338 0.125 39.4375 C0.12757813 38.67308594 0.13015625 37.90867187 0.1328125 37.12109375 C0.07907384 34.81001505 0.07907384 34.81001505 -1 32 C-1.016203 29.5555317 -0.97537245 27.14720422 -0.87890625 24.70703125 C-0.83580322 23.41514893 -0.7927002 22.1232666 -0.74829102 20.79223633 C-0.68697998 19.14892334 -0.62566895 17.50561035 -0.5625 15.8125 C-0.376875 10.594375 -0.19125 5.37625 0 0 Z " fill="#000000" transform="translate(362,265)"/>
<path d="M0 0 C4.01163073 1.00290768 4.5638568 1.23752044 7.125 4.0625 C11.40789342 8.51634925 16.11768209 12.22417411 21 16 C21.61697754 16.48275391 22.23395508 16.96550781 22.86962891 17.46289062 C41.26270392 32.10065235 41.26270392 32.10065235 61.92578125 43.0625 C64 44 64 44 66 46 C64.35 45.67 62.7 45.34 61 45 C61 51.6 61 58.2 61 65 C59.68 65 58.36 65 57 65 C57 66.65 57 68.3 57 70 C38.19 70 19.38 70 0 70 C0 46.9 0 23.8 0 0 Z " fill="#010101" transform="translate(205,293)"/>
<path d="M0 0 C0.81509537 -0.00570007 1.63019073 -0.01140015 2.46998596 -0.01727295 C4.19750667 -0.02673627 5.92504554 -0.0332622 7.65258789 -0.03710938 C10.30191351 -0.04682187 12.95046583 -0.07783464 15.59960938 -0.109375 C17.27473496 -0.11590403 18.94986611 -0.12115489 20.625 -0.125 C21.42087021 -0.1373468 22.21674042 -0.1496936 23.03672791 -0.16241455 C25.27124023 -0.15332031 25.27124023 -0.15332031 28.87890625 0.203125 C31.31659788 3.85966244 31.1683389 6.60102352 31.14453125 10.828125 C31.1464447 11.57143066 31.14835815 12.31473633 31.15032959 13.08056641 C31.15168942 14.65071959 31.14800704 16.2208841 31.13964844 17.79101562 C31.1289457 20.19426733 31.13955015 22.59677154 31.15234375 25 C31.15102212 26.52604332 31.14845965 28.05208617 31.14453125 29.578125 C31.14857971 30.29693848 31.15262817 31.01575195 31.15679932 31.75634766 C31.12202307 35.45662934 30.98713024 37.04078901 28.87890625 40.203125 C26.37890625 40.578125 26.37890625 40.578125 23.87890625 40.203125 C21.70963966 36.94922512 21.63810576 36.06916543 21.68359375 32.31640625 C21.69003906 31.37861328 21.69648438 30.44082031 21.703125 29.47460938 C21.72826172 28.00991211 21.72826172 28.00991211 21.75390625 26.515625 C21.76292969 25.52755859 21.77195312 24.53949219 21.78125 23.52148438 C21.80482207 21.08177508 21.83943652 18.6426135 21.87890625 16.203125 C16.25818205 20.98756592 10.96789929 25.99993806 5.7980957 31.265625 C4.21739631 32.86597109 2.63669237 34.46631268 1.0559845 36.06665039 C0.2307963 36.90406769 -0.5943919 37.74148499 -1.4445858 38.60427856 C-5.84107128 43.06185956 -10.25305619 47.50407469 -14.66210938 51.94921875 C-20.25987467 57.59501372 -25.8532515 63.24498627 -31.4309082 68.91064453 C-35.9529656 73.50275915 -40.48936743 78.08025222 -45.03583717 82.64819336 C-46.76485583 84.39083145 -48.48843748 86.13888121 -50.20648766 87.89233398 C-52.60022617 90.33408418 -55.01178248 92.75677035 -57.4284668 95.17578125 C-58.1366304 95.90708755 -58.84479401 96.63839386 -59.57441711 97.39186096 C-60.23444733 98.04508835 -60.89447754 98.69831573 -61.57450867 99.37133789 C-62.42586915 100.23294273 -62.42586915 100.23294273 -63.29442883 101.11195374 C-65.12109375 102.203125 -65.12109375 102.203125 -67.78025532 101.94261169 C-70.12109375 101.203125 -70.12109375 101.203125 -71.12109375 100.203125 C-71.45979925 97.25406263 -71.47968201 95.72597396 -69.77799988 93.24479198 C-69.1438063 92.61520738 -68.50961273 91.98562277 -67.85620117 91.33695984 C-67.13258392 90.60646927 -66.40896667 89.8759787 -65.66342163 89.12335205 C-64.85925812 88.33716492 -64.0550946 87.55097778 -63.2265625 86.7409668 C-62.38775543 85.9014296 -61.54894836 85.0618924 -60.6847229 84.19691467 C-58.38376209 81.89884066 -56.07208643 79.61224193 -53.7551918 77.33025336 C-51.33592872 74.94224448 -48.93081563 72.5400707 -46.52416992 70.13935852 C-41.96545871 65.5961885 -37.39415209 61.06591412 -32.81819057 56.54012662 C-27.6089315 51.38675239 -22.4138612 46.21917506 -17.21993828 41.0503515 C-6.53604393 30.41872154 4.16555156 19.80507369 14.87890625 9.203125 C14.18740479 9.17806885 13.49590332 9.1530127 12.78344727 9.12719727 C9.66922759 9.01160339 6.55533836 8.88871258 3.44140625 8.765625 C2.35279297 8.72630859 1.26417969 8.68699219 0.14257812 8.64648438 C-1.40913086 8.58364258 -1.40913086 8.58364258 -2.9921875 8.51953125 C-3.9505249 8.48287354 -4.9088623 8.44621582 -5.89624023 8.40844727 C-8.12109375 8.203125 -8.12109375 8.203125 -9.12109375 7.203125 C-9.24609375 4.203125 -9.24609375 4.203125 -9.12109375 1.203125 C-7.07422035 -0.8437484 -2.81504655 0.01499397 0 0 Z " fill="#F97C0D" transform="translate(323.12109375,115.796875)"/>
<path d="M0 0 C0.75925781 -0.02578125 1.51851563 -0.0515625 2.30078125 -0.078125 C7.2613114 0.60384641 10.65500857 3.96789576 14.07885742 7.3984375 C14.91289597 8.22939941 15.74693451 9.06036133 16.60624695 9.91650391 C17.49286514 10.81030762 18.37948334 11.70411133 19.29296875 12.625 C20.21338455 13.54587402 21.13380035 14.46674805 22.08210754 15.41552734 C24.02424636 17.3592254 25.96299417 19.3062216 27.89916992 21.25585938 C30.3789355 23.75264945 32.86526835 26.24277076 35.3539381 28.73068237 C37.7322509 31.10933256 40.10629716 33.49221609 42.48046875 35.875 C43.37315964 36.76880371 44.26585052 37.66260742 45.18559265 38.58349609 C46.01017471 39.41445801 46.83475677 40.24541992 47.68432617 41.1015625 C48.77423103 42.19718506 48.77423103 42.19718506 49.88615417 43.31494141 C53.56749476 47.26954559 54.12602156 49.77208869 54.0078125 54.96484375 C53.5134252 58.49187511 51.97325481 60.58328605 49.6875 63.25 C48.3675 64.24 47.0475 65.23 45.6875 66.25 C26.5475 47.11 7.4075 27.97 -12.3125 8.25 C-5.33326716 0.10756169 -5.33326716 0.10756169 0 0 Z " fill="#FE7E0D" transform="translate(309.3125,251.75)"/>
<path d="M0 0 C1.90966797 1.26367188 1.90966797 1.26367188 3.7421875 2.96875 C4.43038574 3.60490234 5.11858398 4.24105469 5.82763672 4.89648438 C10.38319359 9.30766419 14.84339768 13.80659559 19.2890625 18.328125 C23.43948331 22.52133365 27.66513637 26.52731368 32.13818359 30.37402344 C34.97266313 32.84945403 37.65057423 35.46656299 40.3125 38.125 C40.82361328 38.62386719 41.33472656 39.12273437 41.86132812 39.63671875 C45.7963692 43.55640856 48.71251133 46.7822303 49.4375 52.375 C48.80933857 57.57976613 46.7624435 60.89862505 43.375 64.9375 C42 66 42 66 40 66 C38.68199158 64.6619873 38.68199158 64.6619873 37.10131836 62.73242188 C32.17143589 56.94023664 26.7659879 51.64150301 21.37890625 46.28125 C20.26767877 45.17189167 19.15667488 44.06230933 18.04588318 42.95251465 C15.14655629 40.05697384 12.24423728 37.16445093 9.34124756 34.27258301 C6.36953694 31.31117136 3.40071733 28.34686446 0.43164062 25.3828125 C-5.3761082 19.5857319 -11.18702673 13.7918418 -17 8 C-16.04578192 6.85073734 -15.08647955 5.70569459 -14.125 4.5625 C-13.59132812 3.92441406 -13.05765625 3.28632812 -12.5078125 2.62890625 C-9.10543122 -1.04672326 -4.66578041 -0.82083174 0 0 Z " fill="#FD7E0D" transform="translate(173,110)"/>
<path d="M0 0 C1 3 1 3 0.08984375 5.59765625 C-3.05856007 15.42654417 -1.90622792 27.4933226 0.79226398 37.29543972 C5.27717085 53.84157092 4.64983556 70.65558535 4.50696969 87.64071536 C4.47524494 92.06350116 4.47273978 96.48631291 4.46684265 100.90919495 C4.45143732 109.24550874 4.41059362 117.58148606 4.3600952 125.91765314 C4.30378162 135.4246083 4.27661073 144.9315814 4.25161803 154.43866241 C4.19966218 173.95933652 4.10814192 193.47955072 4 213 C21.16 213 38.32 213 56 213 C56 214.98 56 216.96 56 219 C37.19 219 18.38 219 -1 219 C-1.01981934 213.54952148 -1.03963867 208.09904297 -1.06005859 202.48339844 C-1.12699325 184.46628623 -1.20453402 166.44923118 -1.28752708 148.43218613 C-1.3375825 137.5094924 -1.3840261 126.58680591 -1.421875 115.6640625 C-1.4548853 106.14035465 -1.49476611 96.61670418 -1.54279006 87.09305978 C-1.56796538 82.05351543 -1.58977286 77.0140087 -1.60334396 71.97441864 C-1.61624605 67.22366358 -1.63838701 62.47303812 -1.66738319 57.72235489 C-1.67639565 55.98584781 -1.68213426 54.2493199 -1.68421364 52.51279068 C-1.69627593 43.96367276 -1.88221733 35.76886786 -3.54433632 27.34413528 C-5.28374335 18.39585703 -4.12891874 9.49509543 -1 1 C-0.67 0.67 -0.34 0.34 0 0 Z " fill="#1D6BA0" transform="translate(129,144)"/>
<path d="M0 0 C0.33 0 0.66 0 1 0 C1 7.92 1 15.84 1 24 C-0.32 24 -1.64 24 -3 24 C-3 25.65 -3 27.3 -3 29 C-21.81 29 -40.62 29 -60 29 C-60 22.4 -60 15.8 -60 9 C-60.66 8.67 -61.32 8.34 -62 8 C-61.47535156 8.10957031 -60.95070313 8.21914063 -60.41015625 8.33203125 C-57.6099163 8.90512528 -54.8059201 9.45532139 -52 10 C-51.3409668 10.12842285 -50.68193359 10.2568457 -50.00292969 10.38916016 C-33.01651278 13.66294833 -20.42141904 14.10776575 -5.0234375 4.46484375 C-3.14577493 3.10553204 -1.61665836 1.65095111 0 0 Z " fill="#010000" transform="translate(341,334)"/>
<path d="M0 0 C1.32 0 2.64 0 4 0 C4 21.78 4 43.56 4 66 C0.25200934 65.06300233 -0.5642915 64.81547164 -3.14453125 62.3671875 C-3.73210205 61.81506592 -4.31967285 61.26294434 -4.92504883 60.6940918 C-5.54790771 60.0937915 -6.1707666 59.49349121 -6.8125 58.875 C-7.46178467 58.25987549 -8.11106934 57.64475098 -8.7800293 57.01098633 C-14.37257434 51.68177794 -19.83993824 46.22521876 -25.2512207 40.71240234 C-25.84507568 40.10992676 -26.43893066 39.50745117 -27.05078125 38.88671875 C-27.57325439 38.35264404 -28.09572754 37.81856934 -28.6340332 37.26831055 C-31.62731849 34.48902242 -34.68718492 34.56007231 -38.6015625 34.56640625 C-42.78354004 35.3224315 -45.14410378 38.0443593 -48 41 C-43.7851421 46.30283678 -39.13896736 50.58597047 -33.97706604 54.96194458 C5.92505763 88.79017572 5.92505763 88.79017572 8.67555237 105.94345093 C9.64803259 117.78144264 7.90500588 129.53287152 5 141 C2 141 2 141 -0.62890625 138.4453125 C-1.61511774 137.34597283 -2.59268035 136.23882704 -3.5625 135.125 C-4.54279678 134.02328446 -5.52325897 132.92171607 -6.50390625 131.8203125 C-7.32761719 130.88960937 -8.15132813 129.95890625 -9 129 C-9.99 128.01 -9.99 128.01 -11 127 C-11.5625 124.375 -11.5625 124.375 -11 121 C-9.38283792 118.80437524 -7.63041538 116.88054909 -5.7265625 114.9296875 C-3.6959989 112.83052681 -3.6959989 112.83052681 -2 109 C-20.48 90.52 -38.96 72.04 -58 53 C-62.06026821 55.03013411 -64.65457376 57.42395554 -67.75 60.625 C-68.50990234 61.3984375 -68.50990234 61.3984375 -69.28515625 62.1875 C-70.52803902 63.45383339 -71.76465276 64.7263144 -73 66 C-73 63 -73 63 -71.80664062 61.46606445 C-71.26201172 60.937146 -70.71738281 60.40822754 -70.15625 59.86328125 C-69.56972656 59.28642578 -68.98320312 58.70957031 -68.37890625 58.11523438 C-67.75886719 57.52033203 -67.13882813 56.92542969 -66.5 56.3125 C-65.87996094 55.70599609 -65.25992188 55.09949219 -64.62109375 54.47460938 C-63.08735293 52.97626257 -61.54451802 51.48723507 -60 50 C-56.06532451 51.59247554 -53.42422224 54.30662369 -50.49707031 57.27587891 C-49.96003983 57.81261734 -49.42300934 58.34935577 -48.8697052 58.90235901 C-47.10106141 60.67239283 -45.33960176 62.44939857 -43.578125 64.2265625 C-42.35116534 65.45725344 -41.12376251 66.6875027 -39.89593506 67.91732788 C-36.66932512 71.15156516 -33.44876709 74.39176408 -30.22943115 77.63323975 C-26.94174328 80.94140534 -23.64836932 84.24389946 -20.35546875 87.546875 C-13.89806702 94.02571079 -7.44704432 100.51085869 -1 107 C-0.1019711 100.35512071 0.53976985 94.60344576 -2.94091797 88.71829224 C-5.67376994 85.40879646 -8.79629463 82.51210988 -11.9375 79.59765625 C-13.06177447 78.50141808 -14.18273965 77.40177675 -15.30053711 76.29893494 C-18.22771582 73.42857364 -21.19704217 70.6061505 -24.17810059 67.79193115 C-27.22149702 64.90299856 -30.22198906 61.97020973 -33.2265625 59.04101562 C-39.11031844 53.31731926 -45.03941013 47.64363407 -51 42 C-50.05361962 40.87131192 -49.10371814 39.74557558 -48.15234375 38.62109375 C-47.62374756 37.99388428 -47.09515137 37.3666748 -46.55053711 36.72045898 C-43.57065501 33.41401446 -41.11131039 32.19234218 -36.75 31.4375 C-26.42790702 32.98581395 -18.88100901 42.76199077 -11.9375 49.875 C-8.328125 53.54625 -4.71875 57.2175 -1 61 C-0.67 40.87 -0.34 20.74 0 0 Z M-5.5625 116.1875 C-6.80193359 117.35345703 -6.80193359 117.35345703 -8.06640625 118.54296875 C-10.15106978 120.82666395 -10.15106978 120.82666395 -10.5546875 123.5 C-9.7854896 126.96680745 -8.12826303 128.39884149 -5.5625 130.8125 C-4.32693359 131.99779297 -4.32693359 131.99779297 -3.06640625 133.20703125 C-1.3300865 135.10922755 -1.3300865 135.10922755 0 135 C0 127.41 0 119.82 0 112 C-2.14776164 112 -4.14678734 114.82939068 -5.5625 116.1875 Z " fill="#22190F" transform="translate(205,76)"/>
<path d="M0 0 C4 3 4 3 4.48101807 5.67655945 C4.47213562 6.75355606 4.46325317 7.83055267 4.45410156 8.94018555 C4.45379944 10.16122482 4.45349731 11.3822641 4.45318604 12.64030457 C4.43254089 13.95912125 4.41189575 15.27793793 4.390625 16.63671875 C4.38316326 18.00005769 4.37747001 19.36340736 4.37347412 20.72676086 C4.35821209 24.31256804 4.31892672 27.8977256 4.2746582 31.48327637 C4.23371698 35.14305677 4.21524643 38.80294543 4.1953125 42.46289062 C4.154554 49.64250053 4.07626681 56.82032736 4 64 C21.49 64 38.98 64 57 64 C57 65.98 57 67.96 57 70 C38.19 70 19.38 70 0 70 C0 46.9 0 23.8 0 0 Z " fill="#1E73AE" transform="translate(205,293)"/>
<path d="M0 0 C0 14.19 0 28.38 0 43 C17.49 43 34.98 43 53 43 C53 44.98 53 46.96 53 49 C34.19 49 15.38 49 -4 49 C-4.061875 41.471875 -4.12375 33.94375 -4.1875 26.1875 C-4.21481201 23.81328857 -4.24212402 21.43907715 -4.27026367 18.99291992 C-4.27902444 17.11377471 -4.28666934 15.23462382 -4.29296875 13.35546875 C-4.30831665 12.37759399 -4.32366455 11.39971924 -4.33947754 10.39221191 C-4.33984009 9.45864868 -4.34020264 8.52508545 -4.34057617 7.56323242 C-4.34723801 6.7527092 -4.35389984 5.94218597 -4.36076355 5.10710144 C-3.96578944 2.80018735 -2.74072328 0 0 0 Z " fill="#1D73AD" transform="translate(362,314)"/>
<path d="M0 0 C2.475 0.495 2.475 0.495 5 1 C5 4.96 5 8.92 5 13 C22.16 13 39.32 13 57 13 C57 14.98 57 16.96 57 19 C38.19 19 19.38 19 0 19 C0 12.73 0 6.46 0 0 Z " fill="#1D71AB" transform="translate(281,344)"/>
<path d="M0 0 C0.11581961 10.10073063 0.20467755 20.20130346 0.25906086 30.30256271 C0.28516155 34.99296258 0.32056787 39.68290837 0.37719727 44.37304688 C0.43150075 48.8988415 0.46141698 53.42419924 0.47438622 57.95029449 C0.48362915 59.67753224 0.50167872 61.40474591 0.52865028 63.13179779 C0.56492026 65.55030591 0.56994648 67.96700613 0.56762695 70.38574219 C0.58560333 71.10071869 0.60357971 71.81569519 0.62210083 72.55233765 C0.60127258 74.55780029 0.60127258 74.55780029 0 78 C-2.53547668 80.47589111 -2.53547668 80.47589111 -5 82 C-5.0926561 71.89922487 -5.16374267 61.79855075 -5.20724869 51.69743729 C-5.22812886 47.00712327 -5.25645422 42.31709987 -5.30175781 37.62695312 C-5.34520044 33.10117484 -5.36913387 28.57567619 -5.37950897 24.04970551 C-5.38690321 22.32249295 -5.40134245 20.5952958 -5.42292023 18.86820221 C-5.45193394 16.44988361 -5.45595697 14.03272229 -5.45410156 11.61425781 C-5.46848267 10.89928131 -5.48286377 10.18430481 -5.49768066 9.44766235 C-5.46879274 5.97079408 -5.22715368 4.28608429 -3.03411865 1.52410889 C-1 0 -1 0 0 0 Z " fill="#1E72AE" transform="translate(286,192)"/>
<path d="M0 0 C3.93467549 1.59247554 6.57577776 4.30662369 9.50292969 7.27587891 C10.03996017 7.81261734 10.57699066 8.34935577 11.1302948 8.90235901 C12.89893859 10.67239283 14.66039824 12.44939857 16.421875 14.2265625 C17.64883466 15.45725344 18.87623749 16.6875027 20.10406494 17.91732788 C23.33067488 21.15156516 26.55123291 24.39176408 29.77056885 27.63323975 C33.05825672 30.94140534 36.35163068 34.24389946 39.64453125 37.546875 C46.10193298 44.02571079 52.55295568 50.51085869 59 57 C59.33 52.38 59.66 47.76 60 43 C64 46 64 46 64.48101807 48.03117371 C64.4676944 49.19366386 64.4676944 49.19366386 64.45410156 50.37963867 C64.45379944 51.26032516 64.45349731 52.14101166 64.45318604 53.04838562 C64.43254089 53.99534805 64.41189575 54.94231049 64.390625 55.91796875 C64.38496521 56.89034988 64.37930542 57.86273102 64.37347412 58.86457825 C64.35106929 61.972718 64.30086481 65.07970824 64.25 68.1875 C64.22994033 70.29360315 64.21168864 72.39972436 64.1953125 74.50585938 C64.15119093 79.67101636 64.0821346 84.83531324 64 90 C62.71432927 89.04040246 61.42929494 88.07995223 60.14453125 87.11914062 C59.42885986 86.5843811 58.71318848 86.04962158 57.97583008 85.49865723 C49.6505441 79.18396947 49.6505441 79.18396947 48.125 74.0625 C49.26716827 70.06491107 51.40138469 67.8726552 54.2734375 64.9296875 C56.3040011 62.83052681 56.3040011 62.83052681 58 59 C39.52 40.52 21.04 22.04 2 3 C-2.06026821 5.03013411 -4.65457376 7.42395554 -7.75 10.625 C-8.50990234 11.3984375 -8.50990234 11.3984375 -9.28515625 12.1875 C-10.52803902 13.45383339 -11.76465276 14.7263144 -13 16 C-13 13 -13 13 -11.80664062 11.46606445 C-11.26201172 10.937146 -10.71738281 10.40822754 -10.15625 9.86328125 C-9.56972656 9.28642578 -8.98320312 8.70957031 -8.37890625 8.11523438 C-7.75886719 7.52033203 -7.13882813 6.92542969 -6.5 6.3125 C-5.87996094 5.70599609 -5.25992188 5.09949219 -4.62109375 4.47460938 C-3.08735293 2.97626257 -1.54451802 1.48723507 0 0 Z M54.4375 66.1875 C53.19806641 67.35345703 53.19806641 67.35345703 51.93359375 68.54296875 C49.84893022 70.82666395 49.84893022 70.82666395 49.4453125 73.5 C50.2145104 76.96680745 51.87173697 78.39884149 54.4375 80.8125 C55.67306641 81.99779297 55.67306641 81.99779297 56.93359375 83.20703125 C58.6699135 85.10922755 58.6699135 85.10922755 60 85 C60 77.41 60 69.82 60 62 C57.85223836 62 55.85321266 64.82939068 54.4375 66.1875 Z " fill="#143A54" transform="translate(145,126)"/>
<path d="M0 0 C1.32 0 2.64 0 4 0 C4 21.78 4 43.56 4 66 C2.68 65.67 1.36 65.34 0 65 C0 43.55 0 22.1 0 0 Z " fill="#1E75B2" transform="translate(205,76)"/>
<path d="M0 0 C8.55400542 4.11750274 15.03203766 11.68898058 21.5625 18.375 C22.67702536 19.50460624 23.79225491 20.63351814 24.90820312 21.76171875 C27.61364667 24.49988229 30.30941215 27.24724073 33 30 C32.67 30.66 32.34 31.32 32 32 C23.83209644 24.61532007 15.92574197 17.02467666 8.20703125 9.16992188 C7.55734375 8.51185547 6.90765625 7.85378906 6.23828125 7.17578125 C5.66118408 6.58708252 5.08408691 5.99838379 4.48950195 5.3918457 C1.90336175 2.97526067 0.05878365 2.86359208 -3.375 2.875 C-4.53128906 2.87113281 -4.53128906 2.87113281 -5.7109375 2.8671875 C-7.9328189 2.99610212 -9.86618508 3.38616283 -12 4 C-8.14726705 -0.02785718 -5.66809526 -0.62978836 0 0 Z " fill="#261201" transform="translate(172,108)"/>
<path d="M0 0 C1.32 0 2.64 0 4 0 C4 8.91 4 17.82 4 27 C0 23 0 23 -0.45410156 20.43457031 C-0.4331543 19.49194336 -0.41220703 18.54931641 -0.390625 17.578125 C-0.37773437 16.55332031 -0.36484375 15.52851563 -0.3515625 14.47265625 C-0.31804687 13.40917969 -0.28453125 12.34570312 -0.25 11.25 C-0.23195313 10.17105469 -0.21390625 9.09210938 -0.1953125 7.98046875 C-0.14821415 5.31941212 -0.082456 2.66015746 0 0 Z " fill="#1E76B3" transform="translate(358,270)"/>
</svg>
